<svg width="512" height="512" viewBox="0 0 512 512" fill="none" xmlns="http://www.w3.org/2000/svg">
<g clip-path="url(#clip0_1158_2)">
<path d="M483.556 0H28.4444C12.735 0 0 12.735 0 28.4444V483.556C0 499.265 12.735 512 28.4444 512H483.556C499.265 512 512 499.265 512 483.556V28.4444C512 12.735 499.265 0 483.556 0Z" fill="#1A1A1A"/>
<path d="M96 96H150.069C162.86 96 173.241 106.381 173.241 119.172V173.241H96V96Z" fill="#FF6523"/>
<path d="M217.379 96H294.621V173.241H240.552C227.761 173.241 217.379 162.86 217.379 150.069V96Z" fill="#FF6523"/>
<path d="M338.759 96H416V150.069C416 162.86 405.619 173.241 392.828 173.241H338.759V96Z" fill="#FF6523"/>
<path d="M96 217.379H173.241V271.448C173.241 284.239 162.86 294.621 150.069 294.621H96V217.379Z" fill="#FF6523"/>
<path d="M217.379 217.379H271.448C284.239 217.379 294.621 227.761 294.621 240.552V294.621H217.379V217.379Z" fill="#FF6523"/>
<path d="M338.759 217.379H392.828C405.619 217.379 416 227.761 416 240.552V294.621H338.759V217.379Z" fill="#FF6523"/>
<path d="M96 338.759H173.241V416H119.172C106.381 416 96 405.619 96 392.828V338.759Z" fill="#FF6523"/>
<path d="M240.552 338.759H294.621V416H217.379V361.931C217.379 349.14 227.761 338.759 240.552 338.759Z" fill="#FF6523"/>
<path d="M338.759 338.759H416V392.828C416 405.619 405.619 416 392.828 416H338.759V338.759Z" fill="#FF6523"/>
</g>
<defs>
<clipPath id="clip0_1158_2">
<rect width="512" height="512" fill="white"/>
</clipPath>
</defs>
</svg>
