<svg width="240" height="240" viewBox="0 0 240 240" fill="none" xmlns="http://www.w3.org/2000/svg">
<g clip-path="url(#clip0_1115_223)">
<path d="M226.667 0H13.3333C5.96954 0 0 5.96954 0 13.3333V226.667C0 234.03 5.96954 240 13.3333 240H226.667C234.03 240 240 234.03 240 226.667V13.3333C240 5.96954 234.03 0 226.667 0Z" fill="#925FFF"/>
<path d="M66.8889 66.5555H82.4445C86.1245 66.5555 89.1111 69.5422 89.1111 73.2222V88.7778H66.8889V66.5555Z" fill="white"/>
<path d="M108.889 66.5555H131.111V88.7778H115.556C111.876 88.7778 108.889 85.7911 108.889 82.1111V66.5555Z" fill="white"/>
<path d="M150.889 66.5555H173.111V82.1111C173.111 85.7911 170.124 88.7778 166.444 88.7778H150.889V66.5555Z" fill="white"/>
<path d="M67 106.778H89.2222V122.333C89.2222 126.013 86.2356 129 82.5556 129H67V106.778Z" fill="white"/>
<path d="M109 106.778H124.556C128.236 106.778 131.222 109.764 131.222 113.444V129H109V106.778Z" fill="white"/>
<path d="M151 106.778H166.556C170.236 106.778 173.222 109.764 173.222 113.444V129H151V106.778Z" fill="white"/>
<path d="M67 147H89.2222V169.222H73.6667C69.9867 169.222 67 166.236 67 162.556V147Z" fill="white"/>
<path d="M115.667 147H131.222V169.222H109V153.667C109 149.987 111.987 147 115.667 147Z" fill="white"/>
<path d="M151 147H173.222V162.556C173.222 166.236 170.236 169.222 166.556 169.222H151V147Z" fill="white"/>
</g>
<defs>
<clipPath id="clip0_1115_223">
<rect width="240" height="240" fill="white"/>
</clipPath>
</defs>
</svg>
